<svg width="1400" height="850" viewBox="0 0 1400 850" fill="none" xmlns="http://www.w3.org/2000/svg">
  <defs>
    <linearGradient id="sky" x1="700" y1="0" x2="700" y2="850" gradientUnits="userSpaceOnUse">
      <stop stop-color="#F1F2F1"/>
      <stop offset="1" stop-color="#D9D6CE"/>
    </linearGradient>
    <linearGradient id="wall" x1="0" y1="0" x2="1" y2="1">
      <stop stop-color="#F4F1EB"/>
      <stop offset="1" stop-color="#C8C3B9"/>
    </linearGradient>
    <filter id="shadow" x="-20%" y="-20%" width="140%" height="160%">
      <feDropShadow dx="0" dy="22" stdDeviation="20" flood-color="#544F45" flood-opacity=".16"/>
    </filter>
  </defs>
  <rect width="1400" height="850" fill="url(#sky)"/>
  <path d="M0 640C186 610 331 623 493 652C708 691 916 688 1400 612V850H0V640Z" fill="#CFC8BA"/>
  <path d="M0 675C271 647 439 691 635 702C862 715 1097 665 1400 652V850H0V675Z" fill="#E5E0D7"/>
  <g filter="url(#shadow)">
    <path d="M176 586V344L555 225V585L176 586Z" fill="url(#wall)"/>
    <path d="M555 225L775 283V585H555V225Z" fill="#D2CEC5"/>
    <path d="M555 345H843V585H555V345Z" fill="#ECE8E0"/>
    <path d="M716 347H843V585H716V347Z" fill="#B9B6B0"/>
    <path d="M747 379H842V584H747V379Z" fill="#252828"/>
    <path d="M842 325L1030 277V584H842V325Z" fill="url(#wall)"/>
    <path d="M1030 277L1114 333V584H1030V277Z" fill="#D8D4CC"/>
    <path d="M1059 462H1248V584H1059V462Z" fill="#E9E5DD"/>
    <path d="M1219 435L1309 466V584H1219V435Z" fill="#C9C5BC"/>
  </g>
  <path d="M479 585H1008L919 704H348L479 585Z" fill="#F5F2EC"/>
  <path d="M519 602H985M496 623H968M474 646H949M452 670H931" stroke="#C7C1B7" stroke-width="4"/>
  <g stroke="#A19D94" stroke-width="3">
    <path d="M1243 313V587"/>
    <path d="M1243 347C1192 333 1176 283 1199 247C1227 204 1290 217 1303 264C1313 302 1285 340 1243 347Z" fill="#7E8A69"/>
    <path d="M1243 328C1280 314 1328 330 1335 369C1341 405 1306 429 1271 415C1246 405 1237 367 1243 328Z" fill="#71805D"/>
    <path d="M1240 325C1205 314 1167 332 1164 368C1161 399 1191 421 1221 411C1244 403 1250 361 1240 325Z" fill="#8B9675"/>
  </g>
  <g opacity=".28" stroke="#8C877D">
    <path d="M176 395H555M176 456H555M176 518H555"/>
    <path d="M302 304V586M428 264V586"/>
    <path d="M842 383H1030M842 446H1030M842 510H1030"/>
  </g>
</svg>
